<svg width="200" height="186" viewBox="0 0 200 186" fill="none" xmlns="http://www.w3.org/2000/svg">
<g filter="url(#filter0_d)">
<g filter="url(#filter1_d)">
<path fill-rule="evenodd" clip-rule="evenodd" d="M25.7695 162.478C36.8734 173.582 54.1914 174.684 66.5294 165.785L168.791 113.288C183.278 105.85 183.278 85.1408 168.791 77.7031L66.4561 25.1675C54.123 16.3272 36.8526 17.4478 25.7712 28.5292C13.4431 40.8573 13.4431 60.845 25.7712 73.1731L48.0931 95.4951L48.1008 95.4874L48.1008 95.5211L48.0914 95.5117L25.7695 117.834C13.4414 130.162 13.4414 150.15 25.7695 162.478Z" fill="url(#paint0_linear)" fill-opacity="0.1"/>
</g>
</g>
<path d="M174.006 102.632C184.872 97.0538 184.872 81.5216 174.006 75.9434L59.2192 17.0149C52.5645 13.5985 44.6521 18.4307 44.6521 25.9111L44.6521 152.664C44.6521 160.144 52.5645 164.976 59.2192 161.56L174.006 102.632Z" fill="url(#paint1_linear)"/>
<path d="M22.3226 156.27C34.6506 168.598 54.6384 168.598 66.9665 156.27C79.2946 143.942 79.2946 123.954 66.9665 111.626L44.6445 89.304L22.3226 111.626C9.99451 123.954 9.9945 143.942 22.3226 156.27Z" fill="url(#paint2_linear)"/>
<path d="M66.9645 22.322C54.6365 9.99388 34.6487 9.99388 22.3206 22.322C9.99256 34.65 9.99255 54.6378 22.3206 66.9659L44.6426 89.2878L66.9645 66.9659C79.2926 54.6378 79.2926 34.65 66.9645 22.322Z" fill="url(#paint3_linear)"/>
<defs>
<filter id="filter0_d" x="6.52344" y="13.2832" width="183.133" height="172.44" filterUnits="userSpaceOnUse" color-interpolation-filters="sRGB">
<feFlood flood-opacity="0" result="BackgroundImageFix"/>
<feColorMatrix in="SourceAlpha" type="matrix" values="0 0 0 0 0 0 0 0 0 0 0 0 0 0 0 0 0 0 127 0"/>
<feOffset dy="4"/>
<feGaussianBlur stdDeviation="5"/>
<feColorMatrix type="matrix" values="0 0 0 0 0 0 0 0 0 0 0 0 0 0 0 0 0 0 0.1 0"/>
<feBlend mode="normal" in2="BackgroundImageFix" result="effect1_dropShadow"/>
<feBlend mode="normal" in="SourceGraphic" in2="effect1_dropShadow" result="shape"/>
</filter>
<filter id="filter1_d" x="6.52344" y="13.2832" width="183.133" height="172.44" filterUnits="userSpaceOnUse" color-interpolation-filters="sRGB">
<feFlood flood-opacity="0" result="BackgroundImageFix"/>
<feColorMatrix in="SourceAlpha" type="matrix" values="0 0 0 0 0 0 0 0 0 0 0 0 0 0 0 0 0 0 127 0"/>
<feOffset dy="4"/>
<feGaussianBlur stdDeviation="5"/>
<feColorMatrix type="matrix" values="0 0 0 0 0 0 0 0 0 0 0 0 0 0 0 0 0 0 0.1 0"/>
<feBlend mode="normal" in2="BackgroundImageFix" result="effect1_dropShadow"/>
<feBlend mode="normal" in="SourceGraphic" in2="effect1_dropShadow" result="shape"/>
</filter>
<linearGradient id="paint0_linear" x1="40.7056" y1="95.4952" x2="9.49997" y2="32.6989" gradientUnits="userSpaceOnUse">
<stop stop-color="#C0A8F9"/>
<stop offset="1" stop-color="#5162E2"/>
</linearGradient>
<linearGradient id="paint1_linear" x1="200" y1="89.2873" x2="44.6521" y2="89.2873" gradientUnits="userSpaceOnUse">
<stop stop-color="#110853"/>
<stop offset="1" stop-color="#5867E4"/>
</linearGradient>
<linearGradient id="paint2_linear" x1="44.6527" y1="168.208" x2="44.6527" y2="89.2875" gradientUnits="userSpaceOnUse">
<stop stop-color="#C0A8F9"/>
<stop offset="1" stop-color="#5162E2"/>
</linearGradient>
<linearGradient id="paint3_linear" x1="44.6508" y1="89.2879" x2="18.6211" y2="20.8905" gradientUnits="userSpaceOnUse">
<stop stop-color="#C0A8F9"/>
<stop offset="1" stop-color="#5162E2"/>
</linearGradient>
</defs>
</svg>
