<svg width="201" height="179" viewBox="0 0 201 179" fill="none" xmlns="http://www.w3.org/2000/svg">
<g filter="url(#filter0_d)">
<path fill-rule="evenodd" clip-rule="evenodd" d="M25.7714 159.479C36.8749 170.582 54.192 171.685 66.5299 162.787L168.793 110.289C183.281 102.851 183.281 82.1417 168.793 74.704L66.4587 22.1683C54.1256 13.3276 36.855 14.4481 25.7734 25.5297C13.4453 37.8578 13.4453 57.8455 25.7734 70.1736L48.0954 92.4956L48.1036 92.4873L48.1036 92.5229L48.0934 92.5127L25.7714 114.835C13.4434 127.163 13.4434 147.15 25.7714 159.479Z" fill="#C0A8F9" fill-opacity="0.05"/>
</g>
<path d="M174.008 102.632C184.874 97.0538 184.874 81.5216 174.008 75.9434L59.2211 17.0149C52.5664 13.5985 44.6541 18.4307 44.6541 25.9111L44.6541 152.664C44.6541 160.144 52.5664 164.976 59.2211 161.56L174.008 102.632Z" fill="url(#paint0_linear)"/>
<path d="M22.3245 156.27C34.6526 168.598 54.6404 168.598 66.9684 156.27C79.2965 143.942 79.2965 123.954 66.9684 111.626L44.6465 89.304L22.3245 111.626C9.99646 123.954 9.99645 143.942 22.3245 156.27Z" fill="url(#paint1_linear)"/>
<path d="M66.9665 22.322C54.6384 9.99388 34.6507 9.99388 22.3226 22.322C9.99451 34.65 9.9945 54.6378 22.3226 66.9659L44.6445 89.2878L66.9665 66.9659C79.2946 54.6378 79.2946 34.65 66.9665 22.322Z" fill="url(#paint2_linear)"/>
<defs>
<filter id="filter0_d" x="11.5254" y="15.2832" width="173.134" height="162.441" filterUnits="userSpaceOnUse" color-interpolation-filters="sRGB">
<feFlood flood-opacity="0" result="BackgroundImageFix"/>
<feColorMatrix in="SourceAlpha" type="matrix" values="0 0 0 0 0 0 0 0 0 0 0 0 0 0 0 0 0 0 127 0"/>
<feOffset dy="4"/>
<feGaussianBlur stdDeviation="2.5"/>
<feColorMatrix type="matrix" values="0 0 0 0 0 0 0 0 0 0 0 0 0 0 0 0 0 0 0.1 0"/>
<feBlend mode="normal" in2="BackgroundImageFix" result="effect1_dropShadow"/>
<feBlend mode="normal" in="SourceGraphic" in2="effect1_dropShadow" result="shape"/>
</filter>
<linearGradient id="paint0_linear" x1="200.002" y1="89.2873" x2="44.6541" y2="89.2873" gradientUnits="userSpaceOnUse">
<stop stop-color="#110853"/>
<stop offset="1" stop-color="#5867E4"/>
</linearGradient>
<linearGradient id="paint1_linear" x1="44.6547" y1="168.208" x2="44.6547" y2="89.2875" gradientUnits="userSpaceOnUse">
<stop stop-color="#C0A8F9"/>
<stop offset="1" stop-color="#5162E2"/>
</linearGradient>
<linearGradient id="paint2_linear" x1="44.6528" y1="89.2879" x2="18.623" y2="20.8905" gradientUnits="userSpaceOnUse">
<stop stop-color="#C0A8F9"/>
<stop offset="1" stop-color="#5162E2"/>
</linearGradient>
</defs>
</svg>
