<svg width="403" height="435" viewBox="0 0 403 435" fill="none" xmlns="http://www.w3.org/2000/svg">
<g opacity="0.9">
<g opacity="0.3" filter="url(#filter0_d)">
<rect width="262.439" height="262.439" rx="20" transform="matrix(0.761828 -0.647779 0.761828 0.647779 2 257.62)" fill="url(#paint0_linear)"/>
</g>
<rect width="262.439" height="262.439" rx="20" transform="matrix(0.761828 -0.647779 0.761828 0.647779 2.13257 232.259)" fill="url(#paint1_linear)"/>
<path fill-rule="evenodd" clip-rule="evenodd" d="M33.2089 137.031C24.794 144.186 24.794 155.787 33.2089 162.942L188.054 294.606C196.469 301.761 210.112 301.761 218.527 294.606L373.372 162.942C381.787 155.787 381.787 144.186 373.372 137.031L218.527 5.36638C210.112 -1.78879 196.469 -1.7888 188.054 5.36638L33.2089 137.031ZM66.7273 137.031C58.3124 144.186 58.3123 155.787 66.7273 162.942L188.054 266.105C196.469 273.261 210.112 273.261 218.527 266.105L339.854 162.942C348.269 155.787 348.269 144.186 339.854 137.031L218.527 33.8671C210.112 26.7119 196.469 26.7119 188.054 33.8671L66.7273 137.031Z" fill="url(#paint2_linear)"/>
</g>
<defs>
<filter id="filter0_d" x="0.925293" y="89.2065" width="402.017" height="344.827" filterUnits="userSpaceOnUse" color-interpolation-filters="sRGB">
<feFlood flood-opacity="0" result="BackgroundImageFix"/>
<feColorMatrix in="SourceAlpha" type="matrix" values="0 0 0 0 0 0 0 0 0 0 0 0 0 0 0 0 0 0 127 0"/>
<feOffset dy="4"/>
<feGaussianBlur stdDeviation="5"/>
<feColorMatrix type="matrix" values="0 0 0 0 0 0 0 0 0 0 0 0 0 0 0 0 0 0 0.1 0"/>
<feBlend mode="normal" in2="BackgroundImageFix" result="effect1_dropShadow"/>
<feBlend mode="normal" in="SourceGraphic" in2="effect1_dropShadow" result="shape"/>
</filter>
<linearGradient id="paint0_linear" x1="131.22" y1="-1.62555e-06" x2="172.348" y2="255.828" gradientUnits="userSpaceOnUse">
<stop stop-color="#E99C84"/>
<stop offset="0.510417" stop-color="#C43F7E" stop-opacity="0.61"/>
<stop offset="1" stop-color="#691BAB" stop-opacity="0.65"/>
</linearGradient>
<linearGradient id="paint1_linear" x1="131.22" y1="-1.62555e-06" x2="172.348" y2="255.828" gradientUnits="userSpaceOnUse">
<stop stop-color="#E99C84"/>
<stop offset="0.510417" stop-color="#C43F7E" stop-opacity="0.61"/>
<stop offset="1" stop-color="#691BAB" stop-opacity="0.65"/>
</linearGradient>
<linearGradient id="paint2_linear" x1="203.051" y1="0.259633" x2="203.291" y2="299.972" gradientUnits="userSpaceOnUse">
<stop stop-color="white"/>
<stop offset="1" stop-color="#E3C8D7"/>
</linearGradient>
</defs>
</svg>
