<svg width="204" height="217" viewBox="0 0 204 217" fill="none" xmlns="http://www.w3.org/2000/svg">
<g opacity="0.9">
<g opacity="0.3" filter="url(#filter0_d)">
<rect width="131.22" height="131.22" rx="20" transform="matrix(0.761828 -0.647779 0.761828 0.647779 2 125.016)" fill="url(#paint0_linear)"/>
</g>
<rect width="131.22" height="131.22" rx="20" transform="matrix(0.761828 -0.647779 0.761828 0.647779 2.06641 112.335)" fill="url(#paint1_linear)"/>
<path fill-rule="evenodd" clip-rule="evenodd" d="M25.2228 58.2429C16.8079 65.3981 16.8079 76.9989 25.2228 84.1541L87.4089 137.031C95.8238 144.186 109.467 144.186 117.882 137.031L180.068 84.1541C188.483 76.9989 188.483 65.3981 180.068 58.2429L117.882 5.36638C109.467 -1.78879 95.8238 -1.78879 87.4089 5.36638L25.2228 58.2429ZM41.982 58.2429C33.567 65.3981 33.567 76.9989 41.982 84.1541L87.4087 122.78C95.8236 129.935 109.467 129.935 117.882 122.78L163.309 84.1541C171.724 76.9989 171.724 65.3981 163.309 58.2429L117.882 19.6167C109.467 12.4616 95.8237 12.4616 87.4087 19.6167L41.982 58.2429Z" fill="url(#paint2_linear)"/>
</g>
<defs>
<filter id="filter0_d" x="0.925293" y="41.6035" width="202.083" height="174.824" filterUnits="userSpaceOnUse" color-interpolation-filters="sRGB">
<feFlood flood-opacity="0" result="BackgroundImageFix"/>
<feColorMatrix in="SourceAlpha" type="matrix" values="0 0 0 0 0 0 0 0 0 0 0 0 0 0 0 0 0 0 127 0"/>
<feOffset dy="4"/>
<feGaussianBlur stdDeviation="5"/>
<feColorMatrix type="matrix" values="0 0 0 0 0 0 0 0 0 0 0 0 0 0 0 0 0 0 0.1 0"/>
<feBlend mode="normal" in2="BackgroundImageFix" result="effect1_dropShadow"/>
<feBlend mode="normal" in="SourceGraphic" in2="effect1_dropShadow" result="shape"/>
</filter>
<linearGradient id="paint0_linear" x1="65.6099" y1="-8.12774e-07" x2="86.1738" y2="127.914" gradientUnits="userSpaceOnUse">
<stop stop-color="#E99C84"/>
<stop offset="0.510417" stop-color="#C43F7E" stop-opacity="0.61"/>
<stop offset="1" stop-color="#691BAB" stop-opacity="0.65"/>
</linearGradient>
<linearGradient id="paint1_linear" x1="65.6099" y1="-8.12774e-07" x2="86.1738" y2="127.914" gradientUnits="userSpaceOnUse">
<stop stop-color="#E99C84"/>
<stop offset="0.510417" stop-color="#C43F7E" stop-opacity="0.61"/>
<stop offset="1" stop-color="#691BAB" stop-opacity="0.65"/>
</linearGradient>
<linearGradient id="paint2_linear" x1="102.532" y1="0.123248" x2="102.645" y2="142.397" gradientUnits="userSpaceOnUse">
<stop stop-color="white"/>
<stop offset="1" stop-color="#E3C8D7"/>
</linearGradient>
</defs>
</svg>
