<svg width="200" height="204" viewBox="0 0 200 204" fill="none" xmlns="http://www.w3.org/2000/svg">
<g filter="url(#filter0_d)">
<path fill-rule="evenodd" clip-rule="evenodd" d="M116.772 118.953C116.971 118.764 117.145 118.597 117.263 118.444C120.517 114.233 122.251 109.142 122.251 105.703C122.251 105.454 122.247 105.177 122.239 104.876C122.237 104.884 122.235 104.89 122.234 104.893C122.234 104.894 122.234 104.895 122.234 104.896C122.232 104.723 122.228 104.55 122.221 104.378C122.216 104.256 122.21 104.132 122.204 104.005C121.974 99.874 120.485 96.0753 118.165 92.9526C114.93 88.598 109.247 84.7633 101.726 84.6567C97.3474 84.5946 94.0128 86.1785 91.9905 87.1391L91.7769 87.2405L91.7766 87.2406L91.7788 87.2405C85.6155 90.6723 81.2661 97.1883 81.2661 104.705C81.2661 131.439 107.649 152.273 137.935 152.273C146.122 152.273 153.883 150.776 160.911 148.136C163.249 147.258 165.499 146.248 167.652 145.119C170 143.888 172.486 146.491 171.073 148.732C161.216 164.356 146.221 176.41 128.455 182.537C128.176 182.634 127.897 182.728 127.616 182.821L127.583 182.832C119.452 185.533 110.765 187.018 101.726 187.018C93 187.018 84.5979 185.642 76.7112 183.116C54.9329 176.144 37.1295 160.317 27.5289 139.869C23.2182 130.689 19.7754 118.844 19.7754 104.007C19.7754 103.317 19.7955 102.624 19.8353 101.929C21.4856 58.1576 57.4896 23.1738 101.688 23.1738C133.522 23.1738 162.801 38.4291 176.364 64.9373C176.457 65.12 176.557 65.3127 176.661 65.5152C178.97 69.9948 183.776 79.3187 183.62 93.0441C183.492 104.231 178.909 114.299 171.39 121.443C169.2 123.525 166.769 125.349 164.144 126.884C158.373 130.258 151.931 132.227 144.769 132.252C144.768 132.252 144.762 132.252 144.752 132.253C144.138 132.279 127.219 133.009 118.171 126.694C116.237 125.344 115.149 123.737 115.149 122.069C115.149 120.505 116.1 119.596 116.772 118.953ZM124.673 183.644C125.537 183.427 126.353 183.203 127.101 182.979C126.3 183.221 125.49 183.443 124.673 183.644Z" fill="url(#paint0_linear)" fill-opacity="0.05"/>
</g>
<g opacity="0.8">
<path fill-rule="evenodd" clip-rule="evenodd" d="M113.382 112.174C113.58 111.985 113.754 111.818 113.872 111.665C117.126 107.454 118.86 102.362 118.86 98.9236C118.86 98.6745 118.856 98.3981 118.848 98.0971C118.846 98.1049 118.844 98.1104 118.844 98.1136C118.843 98.1152 118.843 98.1162 118.843 98.1166C118.841 97.9433 118.837 97.7705 118.831 97.5983C118.826 97.4771 118.82 97.3527 118.813 97.2253C118.583 93.0947 117.094 89.296 114.774 86.1733C111.539 81.8187 105.857 77.984 98.3353 77.8774C93.9567 77.8153 90.6222 79.3992 88.5999 80.3598L88.3863 80.4612L88.386 80.4613L88.3882 80.4613C82.2248 83.893 77.8755 90.409 77.8755 97.9259C77.8755 124.66 104.258 145.494 134.544 145.494C142.731 145.494 150.493 143.997 157.52 141.357C159.858 140.479 162.108 139.469 164.262 138.34C166.609 137.109 169.095 139.712 167.682 141.953C157.825 157.577 142.83 169.631 125.064 175.758C124.785 175.855 124.506 175.949 124.225 176.042L124.192 176.052C116.061 178.754 107.374 180.239 98.3353 180.239C89.6093 180.239 81.2072 178.863 73.3206 176.337C51.5423 169.364 33.7389 153.538 24.1383 133.09C19.8276 123.91 16.3848 112.064 16.3848 97.2276C16.3848 96.5375 16.4049 95.8445 16.4447 95.1495C18.0949 51.3783 54.0989 16.3945 98.2971 16.3945C130.131 16.3945 159.41 31.6498 172.973 58.158C173.067 58.3407 173.166 58.5334 173.27 58.7359C175.579 63.2155 180.385 72.5394 180.229 86.2648C180.102 97.4516 175.518 107.52 168 114.664C165.809 116.746 163.379 118.569 160.753 120.104C154.982 123.478 148.54 125.448 141.378 125.473C141.378 125.473 141.372 125.473 141.361 125.473C140.748 125.5 123.828 126.229 114.78 119.915C112.846 118.565 111.758 116.957 111.758 115.29C111.758 113.726 112.71 112.817 113.382 112.174ZM121.282 176.865C122.146 176.648 122.962 176.424 123.71 176.2C122.909 176.442 122.1 176.664 121.282 176.865Z" fill="url(#paint1_linear)"/>
</g>
<defs>
<filter id="filter0_d" x="-6.60938" y="0.779297" width="216.61" height="216.61" filterUnits="userSpaceOnUse" color-interpolation-filters="sRGB">
<feFlood flood-opacity="0" result="BackgroundImageFix"/>
<feColorMatrix in="SourceAlpha" type="matrix" values="0 0 0 0 0 0 0 0 0 0 0 0 0 0 0 0 0 0 127 0"/>
<feOffset dy="4"/>
<feGaussianBlur stdDeviation="5"/>
<feColorMatrix type="matrix" values="0 0 0 0 0 0 0 0 0 0 0 0 0 0 0 0 0 0 0.1 0"/>
<feBlend mode="normal" in2="BackgroundImageFix" result="effect1_dropShadow"/>
<feBlend mode="normal" in="SourceGraphic" in2="effect1_dropShadow" result="shape"/>
</filter>
<linearGradient id="paint0_linear" x1="19.6625" y1="79.322" x2="367.121" y2="163.39" gradientUnits="userSpaceOnUse">
<stop stop-color="#48D566"/>
<stop offset="0.350856" stop-color="#35C1F1"/>
<stop offset="0.989583" stop-color="#0F5094"/>
</linearGradient>
<linearGradient id="paint1_linear" x1="16.2719" y1="72.5427" x2="363.73" y2="156.611" gradientUnits="userSpaceOnUse">
<stop stop-color="#48D566"/>
<stop offset="0.350856" stop-color="#35C1F1"/>
<stop offset="0.989583" stop-color="#0F5094"/>
</linearGradient>
</defs>
</svg>
