<svg width="196" height="191" viewBox="0 0 196 191" fill="none" xmlns="http://www.w3.org/2000/svg">
<g opacity="0.8" filter="url(#filter0_d)">
<rect x="10.1855" y="6.2793" width="175.814" height="94.186" rx="20" fill="url(#paint0_linear)" fill-opacity="0.1"/>
<path fill-rule="evenodd" clip-rule="evenodd" d="M47.9847 113.525C53.2606 113.525 57.4305 117.853 58.5469 123.01C62.6837 142.116 79.0527 156.385 98.6157 156.385C118.179 156.385 134.548 142.116 138.684 123.01C139.801 117.853 143.971 113.525 149.247 113.525V113.525C154.523 113.525 158.873 117.826 158.112 123.046C153.715 153.208 128.752 176.319 98.6157 176.319C68.4791 176.319 43.5161 153.208 39.119 123.046C38.3579 117.826 42.7087 113.525 47.9847 113.525V113.525Z" fill="url(#paint1_linear)" fill-opacity="0.1"/>
</g>
<rect x="6" width="175.814" height="94.186" rx="20" fill="url(#paint2_linear)"/>
<path fill-rule="evenodd" clip-rule="evenodd" d="M42.7522 106.201C48.0282 106.201 52.198 110.529 53.3145 115.685C57.4513 134.792 73.8202 149.061 93.3832 149.061C112.946 149.061 129.315 134.792 133.452 115.685C134.568 110.529 138.738 106.201 144.014 106.201V106.201C149.29 106.201 153.641 110.501 152.88 115.722C148.483 145.884 123.52 168.995 93.3832 168.995C63.2467 168.995 38.2837 145.884 33.8866 115.722C33.1255 110.501 37.4763 106.201 42.7522 106.201V106.201Z" fill="url(#paint3_linear)"/>
<line x1="61.5859" y1="14.3912" x2="23.1251" y2="52.852" stroke="url(#paint4_linear)" stroke-width="8" stroke-linecap="round"/>
<line x1="65.1172" y1="28.5084" x2="40.774" y2="52.8516" stroke="url(#paint5_linear)" stroke-width="8" stroke-linecap="round"/>
<line x1="44.8223" y1="13.5094" x2="20.4791" y2="37.8525" stroke="url(#paint6_linear)" stroke-width="8" stroke-linecap="round"/>
<defs>
<filter id="filter0_d" x="0.185547" y="0.279297" width="195.814" height="190.04" filterUnits="userSpaceOnUse" color-interpolation-filters="sRGB">
<feFlood flood-opacity="0" result="BackgroundImageFix"/>
<feColorMatrix in="SourceAlpha" type="matrix" values="0 0 0 0 0 0 0 0 0 0 0 0 0 0 0 0 0 0 127 0"/>
<feOffset dy="4"/>
<feGaussianBlur stdDeviation="5"/>
<feColorMatrix type="matrix" values="0 0 0 0 0 0 0 0 0 0 0 0 0 0 0 0 0 0 0.1 0"/>
<feBlend mode="normal" in2="BackgroundImageFix" result="effect1_dropShadow"/>
<feBlend mode="normal" in="SourceGraphic" in2="effect1_dropShadow" result="shape"/>
</filter>
<linearGradient id="paint0_linear" x1="98.0925" y1="6.2793" x2="98.0925" y2="100.465" gradientUnits="userSpaceOnUse">
<stop stop-color="#84D3A2"/>
<stop offset="1" stop-color="#8EA888"/>
</linearGradient>
<linearGradient id="paint1_linear" x1="98.6157" y1="113.525" x2="98.6157" y2="176.319" gradientUnits="userSpaceOnUse">
<stop stop-color="#84D3A2"/>
<stop offset="1" stop-color="#8EA888"/>
</linearGradient>
<linearGradient id="paint2_linear" x1="93.907" y1="0" x2="93.907" y2="94.186" gradientUnits="userSpaceOnUse">
<stop stop-color="#84D3A2"/>
<stop offset="1" stop-color="#8EA888"/>
</linearGradient>
<linearGradient id="paint3_linear" x1="93.3832" y1="106.201" x2="93.3832" y2="168.995" gradientUnits="userSpaceOnUse">
<stop stop-color="#84D3A2"/>
<stop offset="1" stop-color="#8EA888"/>
</linearGradient>
<linearGradient id="paint4_linear" x1="39.5271" y1="30.7932" x2="38.82" y2="30.0861" gradientUnits="userSpaceOnUse">
<stop stop-color="#CBDAD1"/>
<stop offset="1" stop-color="white"/>
</linearGradient>
<linearGradient id="paint5_linear" x1="50.1172" y1="37.8516" x2="49.4101" y2="37.1445" gradientUnits="userSpaceOnUse">
<stop stop-color="#CBDAD1"/>
<stop offset="1" stop-color="white"/>
</linearGradient>
<linearGradient id="paint6_linear" x1="29.8223" y1="22.8525" x2="29.1152" y2="22.1454" gradientUnits="userSpaceOnUse">
<stop stop-color="#CBDAD1"/>
<stop offset="1" stop-color="white"/>
</linearGradient>
</defs>
</svg>
