<svg width="214" height="274" viewBox="0 0 214 274" fill="none" xmlns="http://www.w3.org/2000/svg">
<g opacity="0.3" clip-path="url(#clip0)" filter="url(#filter0_d)">
<path d="M78.784 6.61914C75.8144 6.61914 72.8448 9.58874 72.8448 15.528V95.7073C72.8448 98.6769 75.8144 104.616 81.7536 104.616H84.7233L120.358 89.768H155.994H194.599C197.568 89.768 203.507 86.7984 203.507 80.8592V15.528C200.538 9.58874 197.568 6.61914 191.629 6.61914H78.784ZM55.0272 104.616C37.2096 104.616 19.392 119.464 19.392 140.251C19.392 158.069 34.24 175.887 55.0272 175.887C72.8448 175.887 90.6625 161.039 90.6625 140.251C90.6625 119.464 75.8144 104.616 55.0272 104.616ZM55.0272 181.826C31.2704 181.826 10.4832 202.613 10.4832 229.339V250.127C10.4832 253.096 13.4528 259.035 19.392 259.035H93.6321C96.6017 259.035 102.541 256.066 102.541 250.127V229.339C102.541 202.613 81.7536 181.826 55.0272 181.826Z" fill="url(#paint0_linear)" fill-opacity="0.6"/>
<path d="M164.089 110.352C153.13 110.352 142.171 119.463 142.171 132.217C142.171 143.15 151.303 154.083 164.089 154.083C176.874 154.083 184.18 144.972 184.18 132.217C186.006 119.463 176.874 110.352 164.089 110.352ZM164.089 157.727C149.477 157.727 136.691 170.481 136.691 185.058V197.813C136.691 199.635 138.518 203.279 142.171 203.279H187.833C189.659 203.279 193.312 201.457 193.312 197.813V186.88C193.312 170.481 180.527 157.727 164.089 157.727Z" fill="url(#paint1_linear)" fill-opacity="0.6"/>
</g>
<g clip-path="url(#clip1)">
<g opacity="0.9">
<path d="M72.3009 1C69.3313 1 66.3617 3.9696 66.3617 9.90881V90.0881C66.3617 93.0577 69.3313 98.9969 75.2705 98.9969H78.2401L113.875 84.1489H149.511H188.115C191.085 84.1489 197.024 81.1793 197.024 75.2401V9.90881C194.055 3.9696 191.085 1 185.146 1H72.3009ZM48.5441 98.9969C30.7264 98.9969 12.9088 113.845 12.9088 134.632C12.9088 152.45 27.7568 170.267 48.5441 170.267C66.3617 170.267 84.1793 155.419 84.1793 134.632C84.1793 113.845 69.3313 98.9969 48.5441 98.9969ZM48.5441 176.207C24.7872 176.207 4 196.994 4 223.72V244.508C4 247.477 6.9696 253.416 12.9088 253.416H87.1489C90.1185 253.416 96.0577 250.447 96.0577 244.508V223.72C96.0577 196.994 75.2705 176.207 48.5441 176.207Z" fill="url(#paint2_linear)"/>
<path d="M157.605 104.733C146.647 104.733 135.688 113.843 135.688 126.598C135.688 137.531 144.82 148.463 157.605 148.463C170.391 148.463 177.697 139.353 177.697 126.598C179.523 113.843 170.391 104.733 157.605 104.733ZM157.605 152.108C142.994 152.108 130.208 164.862 130.208 179.439V192.194C130.208 194.016 132.035 197.66 135.688 197.66H181.35C183.176 197.66 186.829 195.838 186.829 192.194V181.261C186.829 164.862 174.044 152.108 157.605 152.108Z" fill="url(#paint3_linear)"/>
</g>
</g>
<defs>
<filter id="filter0_d" x="0.472412" y="0.178223" width="213.527" height="273.074" filterUnits="userSpaceOnUse" color-interpolation-filters="sRGB">
<feFlood flood-opacity="0" result="BackgroundImageFix"/>
<feColorMatrix in="SourceAlpha" type="matrix" values="0 0 0 0 0 0 0 0 0 0 0 0 0 0 0 0 0 0 127 0"/>
<feOffset dy="4"/>
<feGaussianBlur stdDeviation="5"/>
<feColorMatrix type="matrix" values="0 0 0 0 0 0 0 0 0 0 0 0 0 0 0 0 0 0 0.1 0"/>
<feBlend mode="normal" in2="BackgroundImageFix" result="effect1_dropShadow"/>
<feBlend mode="normal" in="SourceGraphic" in2="effect1_dropShadow" result="shape"/>
</filter>
<linearGradient id="paint0_linear" x1="-41.8154" y1="-71.1804" x2="262.899" y2="259.035" gradientUnits="userSpaceOnUse">
<stop stop-color="#80F29E"/>
<stop offset="1" stop-color="#54624E"/>
</linearGradient>
<linearGradient id="paint1_linear" x1="5.89509" y1="2.48603" x2="192.827" y2="205.548" gradientUnits="userSpaceOnUse">
<stop stop-color="#80F29E"/>
<stop offset="1" stop-color="#54624E"/>
</linearGradient>
<linearGradient id="paint2_linear" x1="26.4754" y1="46.8153" x2="223.568" y2="288.858" gradientUnits="userSpaceOnUse">
<stop stop-color="#84D3A2"/>
<stop offset="1" stop-color="#62745E"/>
</linearGradient>
<linearGradient id="paint3_linear" x1="-0.588134" y1="-3.13311" x2="186.344" y2="199.929" gradientUnits="userSpaceOnUse">
<stop stop-color="#84D3A2"/>
<stop offset="1" stop-color="#62745E"/>
</linearGradient>
<clipPath id="clip0">
<rect width="193.527" height="253.074" fill="white" transform="translate(10.4724 6.17822)"/>
</clipPath>
<clipPath id="clip1">
<rect width="193.527" height="252.427" fill="white" transform="translate(4 1)"/>
</clipPath>
</defs>
</svg>
