<svg width="220" height="221" viewBox="0 0 220 221" fill="none" xmlns="http://www.w3.org/2000/svg">
<g filter="url(#filter0_d)">
<path fill-rule="evenodd" clip-rule="evenodd" d="M209.45 96.2168C210.029 101.729 205.492 106.25 199.949 106.25H132.155C123.313 106.25 118.822 116.882 124.985 123.222L172.124 171.703C175.996 175.686 175.908 182.107 171.527 185.525C154.601 198.731 133.306 206.598 110.174 206.598C55.0412 206.598 10.3472 161.904 10.3472 106.771C10.3472 51.6384 55.0412 6.94434 110.174 6.94434C161.742 6.94434 204.178 46.0454 209.45 96.2168Z" fill="url(#paint0_linear)" fill-opacity="0.3"/>
</g>
<path fill-rule="evenodd" clip-rule="evenodd" d="M209.103 89.2725C209.682 94.7849 205.144 99.3061 199.602 99.3061H131.808C122.966 99.3061 118.474 109.938 124.638 116.277L171.777 164.759C175.649 168.742 175.56 175.163 171.18 178.58C154.253 191.786 132.959 199.654 109.827 199.654C54.6941 199.654 10 154.96 10 99.827C10 44.6941 54.6941 0 109.827 0C161.395 0 203.831 39.1011 209.103 89.2725Z" fill="url(#paint1_linear)"/>
<defs>
<filter id="filter0_d" x="0.347168" y="0.944336" width="219.153" height="219.654" filterUnits="userSpaceOnUse" color-interpolation-filters="sRGB">
<feFlood flood-opacity="0" result="BackgroundImageFix"/>
<feColorMatrix in="SourceAlpha" type="matrix" values="0 0 0 0 0 0 0 0 0 0 0 0 0 0 0 0 0 0 127 0"/>
<feOffset dy="4"/>
<feGaussianBlur stdDeviation="5"/>
<feColorMatrix type="matrix" values="0 0 0 0 0 0 0 0 0 0 0 0 0 0 0 0 0 0 0.1 0"/>
<feBlend mode="normal" in2="BackgroundImageFix" result="effect1_dropShadow"/>
<feBlend mode="normal" in="SourceGraphic" in2="effect1_dropShadow" result="shape"/>
</filter>
<linearGradient id="paint0_linear" x1="47.5002" y1="31.25" x2="319.724" y2="231.251" gradientUnits="userSpaceOnUse">
<stop stop-color="#7ED4EA"/>
<stop offset="1" stop-color="#81C68C"/>
</linearGradient>
<linearGradient id="paint1_linear" x1="47.153" y1="24.3057" x2="319.377" y2="224.307" gradientUnits="userSpaceOnUse">
<stop stop-color="#7ED4EA"/>
<stop offset="1" stop-color="#81C68C"/>
</linearGradient>
</defs>
</svg>
